<?xml version="1.0" encoding="UTF-8"?>
<svg version="1.1" xmlns="http://www.w3.org/2000/svg" width="512" height="512">
<path d="M0 0 C8.97325208 7.70430734 10.10876923 18.36326223 11.7649231 29.5223999 C11.91883385 30.52337149 12.0727446 31.52434308 12.23131931 32.55564713 C12.74122907 35.88222387 13.24195231 39.21011508 13.74267578 42.53808594 C14.10906329 44.94094176 14.47602235 47.34371048 14.84350586 49.74639893 C15.6346427 54.92756207 16.42182263 60.1093099 17.20541763 65.29161835 C18.35663588 72.90503095 19.51533367 80.51729161 20.67567311 88.12931874 C22.5829142 100.64241735 24.48445079 113.15637586 26.38232422 125.67089844 C28.18308913 137.54499576 29.98601067 149.41876136 31.79248047 161.29199219 C31.90170972 162.00992941 32.01093897 162.72786662 32.1234782 163.46755952 C33.11332543 169.97336828 34.10342707 176.47913832 35.09359312 182.98489857 C35.75287036 187.31662324 36.41207775 191.64835854 37.07122803 195.98010254 C37.17973389 196.6931468 37.28823976 197.40619107 37.40003368 198.14084274 C38.92952915 208.19256507 40.45582501 218.24476897 41.97993025 228.29730994 C42.95118416 234.70285576 43.92316453 241.10829133 44.89550781 247.51367188 C45.05455997 248.56150544 45.05455997 248.56150544 45.21682531 249.63050735 C48.16141197 269.02630155 51.1408627 288.41637143 54.16040007 307.8006392 C54.88035284 312.42283992 55.59842792 317.04532907 56.31543541 321.66798782 C56.61188688 323.57924269 56.61188688 323.57924269 56.91432726 325.52910876 C57.30636736 328.05705111 57.69833157 330.58500522 58.09021699 333.11297154 C59.21081117 340.33558 60.34142792 347.55652526 61.47990799 354.77633476 C62.17242593 359.18278627 62.85564611 363.59064327 63.53639269 367.99892712 C63.84912768 370.0110218 64.16576589 372.02251476 64.48681593 374.03329945 C69.44206164 405.098997 69.44206164 405.098997 64.32421875 413.359375 C59.98119812 418.74010852 54.84832793 422.54073012 48 424 C46.00046902 424.04331114 43.99934844 424.05104719 42 424 C42.03480469 424.92941406 42.06960938 425.85882813 42.10546875 426.81640625 C42.32763981 436.96221786 41.52333745 442.85944678 34.609375 450.4921875 C28.94018651 455.80361166 22.38016326 456.14470908 15 456 C15.0928125 457.918125 15.0928125 457.918125 15.1875 459.875 C15.17718765 466.41303207 13.68368809 472.32932234 10.1875 477.875 C3.9189857 483.96441389 -2.68560179 486.25192631 -11.30001831 486.17900085 C-12.07572174 486.1623085 -12.85142517 486.14561615 -13.65063477 486.12841797 C-15.38407826 486.10929922 -17.11752251 486.09024925 -18.85096741 486.07125854 C-20.21641032 486.05077265 -20.21641032 486.05077265 -21.60943794 486.02987289 C-26.47705237 485.96509888 -31.3449152 485.96079353 -36.21289062 485.9453125 C-42.3862796 485.92180513 -48.55809955 485.88103474 -54.73071289 485.77734375 C-59.7385896 485.69480517 -64.74377656 485.67193931 -69.75227165 485.68716812 C-71.64719392 485.68224042 -73.54219786 485.65609927 -75.43649483 485.60717392 C-85.71793444 485.35238943 -93.06640763 485.70274469 -100.92553711 492.85205078 C-102.50317488 494.40703072 -104.04210803 495.98916538 -105.56553459 497.59715652 C-113.82714519 505.67664485 -122.74211923 506.26799425 -133.71173859 506.1507988 C-144.60559321 505.91057256 -155.47416851 504.9348797 -166.33496094 504.10400391 C-169.06501775 503.89912376 -171.79521516 503.69614411 -174.52540588 503.49305725 C-181.13259956 503.00040518 -187.73926512 502.50099495 -194.34576312 501.99910881 C-199.71883045 501.59107141 -205.09208965 501.18565263 -210.46549225 500.7820549 C-211.23376131 500.72434976 -212.00203037 500.66664462 -212.79358031 500.60719084 C-214.35484217 500.48993796 -215.91610459 500.37269245 -217.47736755 500.25545423 C-231.24199379 499.22158265 -245.00612988 498.18132275 -258.77001953 497.13769531 C-272.09675061 496.12721504 -285.42388547 495.12227675 -298.75146484 494.12304688 C-313.30396222 493.03197342 -327.85620838 491.93764641 -342.40805078 490.83786905 C-343.96195727 490.72043585 -345.51586395 490.60300503 -347.06977081 490.48557663 C-348.21628489 490.39892929 -348.21628489 490.39892929 -349.38596086 490.3105315 C-354.74899294 489.90543039 -360.11219106 489.50257647 -365.47545624 489.10057449 C-372.01647119 488.61021275 -378.55719315 488.11613257 -385.0975782 487.61743714 C-388.42866641 487.36353121 -391.75987646 487.11173684 -395.09137917 486.8632946 C-398.71435099 486.59282481 -402.33679004 486.3160522 -405.95916748 486.03775024 C-406.99527908 485.96186601 -408.03139068 485.88598178 -409.0988996 485.80779803 C-432.68769979 483.9648475 -432.68769979 483.9648475 -440 477 C-441.71154013 474.70682228 -442.78862194 472.62465247 -444 470 C-444.33 469.34 -444.66 468.68 -445 468 C-445.87906181 450.55237948 -444.16196882 433.08830763 -442.80188227 415.70654178 C-442.47697304 411.53093476 -442.16146648 407.35461535 -441.84481812 403.17837524 C-441.29641154 395.96091583 -440.7424886 388.74389762 -440.18490601 381.52714157 C-439.37669823 371.06408117 -438.57935994 360.60021272 -437.784917 350.13609917 C-436.49250534 333.114248 -435.19455182 316.09282498 -433.89160156 299.07177734 C-433.81384558 298.05598255 -433.73608959 297.04018775 -433.65597737 295.99361129 C-432.78907897 284.66978554 -431.921195 273.34603554 -431.0526123 262.02233887 C-430.73784554 257.91837786 -430.42310803 253.81441461 -430.10839844 249.71044922 C-429.99190561 248.19137313 -429.99190561 248.19137313 -429.87305939 246.64160864 C-428.57298734 229.68553346 -427.28094132 212.72885655 -425.99485683 195.77171481 C-425.20403281 185.34931041 -424.40637277 174.92747464 -423.59951854 164.50629874 C-423.04604808 157.35138343 -422.50003224 150.195923 -421.95958543 143.04001229 C-421.64884292 138.92885711 -421.33495376 134.81801379 -421.01176071 130.70781708 C-420.6593425 126.2196813 -420.31737451 121.73087565 -419.98706055 117.24105835 C-419.93529915 116.54015401 -419.88353775 115.83924967 -419.83020782 115.11710581 C-419.04795029 104.28073305 -418.79877044 93.49559366 -419.14166546 82.63311231 C-419.31696765 74.67210137 -418.50247331 66.4868414 -412.73046875 60.41015625 C-405.79579932 54.75910509 -398.96242789 52.6951663 -390.25544739 52.00309753 C-380.45048147 51.0938648 -370.76599353 49.70933494 -361.0378418 48.20043945 C-359.21651591 47.92137823 -357.39512941 47.64271232 -355.57368851 47.36440277 C-350.64763439 46.61058686 -345.72243778 45.85130084 -340.79738307 45.09098649 C-335.51178331 44.27600109 -330.22539688 43.46614856 -324.93910217 42.65568542 C-315.88821119 41.26738594 -306.83780971 39.87593294 -297.78771973 38.48242188 C-284.82670842 36.48682593 -271.86467351 34.49794135 -258.90239072 32.51062322 C-216.75160763 26.04784082 -174.60385707 19.56575532 -132.46375376 13.03368038 C-126.18115976 12.05996629 -119.89831345 11.08789493 -113.61528015 10.11701965 C-112.75576443 9.98419911 -111.89624871 9.85137856 -111.01068705 9.71453315 C-107.6141729 9.18971379 -104.21765006 8.66495086 -100.82108867 8.14043725 C-91.14898998 6.64679919 -81.47788223 5.1471063 -71.80844754 3.63631397 C-65.84774474 2.70543202 -59.88601146 1.78136697 -53.92340881 0.8627333 C-50.54549945 0.34204806 -47.16840009 -0.18287732 -43.79219246 -0.71454811 C-40.17236279 -1.28422299 -36.55086189 -1.84179011 -32.92871094 -2.39648438 C-31.90070216 -2.56135188 -30.87269339 -2.72621939 -29.81353283 -2.89608288 C-7.97257721 -6.18531814 -7.97257721 -6.18531814 0 0 Z " fill="#FABE41" transform="translate(445,5)"/>
<path d="M0 0 C8.97325208 7.70430734 10.10876923 18.36326223 11.7649231 29.5223999 C11.91883385 30.52337149 12.0727446 31.52434308 12.23131931 32.55564713 C12.74122907 35.88222387 13.24195231 39.21011508 13.74267578 42.53808594 C14.10906329 44.94094176 14.47602235 47.34371048 14.84350586 49.74639893 C15.6346427 54.92756207 16.42182263 60.1093099 17.20541763 65.29161835 C18.35663588 72.90503095 19.51533367 80.51729161 20.67567311 88.12931874 C22.5829142 100.64241735 24.48445079 113.15637586 26.38232422 125.67089844 C28.18308913 137.54499576 29.98601067 149.41876136 31.79248047 161.29199219 C31.90170972 162.00992941 32.01093897 162.72786662 32.1234782 163.46755952 C33.11332543 169.97336828 34.10342707 176.47913832 35.09359312 182.98489857 C35.75287036 187.31662324 36.41207775 191.64835854 37.07122803 195.98010254 C37.17973389 196.6931468 37.28823976 197.40619107 37.40003368 198.14084274 C38.92952915 208.19256507 40.45582501 218.24476897 41.97993025 228.29730994 C42.95118416 234.70285576 43.92316453 241.10829133 44.89550781 247.51367188 C45.05455997 248.56150544 45.05455997 248.56150544 45.21682531 249.63050735 C48.16141197 269.02630155 51.1408627 288.41637143 54.16040007 307.8006392 C54.88035284 312.42283992 55.59842792 317.04532907 56.31543541 321.66798782 C56.61188688 323.57924269 56.61188688 323.57924269 56.91432726 325.52910876 C57.30636736 328.05705111 57.69833157 330.58500522 58.09021699 333.11297154 C59.21081117 340.33558 60.34142792 347.55652526 61.47990799 354.77633476 C62.17242593 359.18278627 62.85564611 363.59064327 63.53639269 367.99892712 C63.84912768 370.0110218 64.16576589 372.02251476 64.48681593 374.03329945 C69.44206164 405.098997 69.44206164 405.098997 64.32421875 413.359375 C59.98119812 418.74010852 54.84832793 422.54073012 48 424 C46.00046902 424.04331114 43.99934844 424.05104719 42 424 C42.03480469 424.92941406 42.06960938 425.85882813 42.10546875 426.81640625 C42.32763981 436.96221786 41.52333745 442.85944678 34.609375 450.4921875 C28.94018651 455.80361166 22.38016326 456.14470908 15 456 C15.0928125 457.918125 15.0928125 457.918125 15.1875 459.875 C15.17718765 466.41303207 13.68368809 472.32932234 10.1875 477.875 C3.0749477 484.78433652 -4.32129467 486.31314929 -13.87280273 486.22705078 C-15.16180733 486.22748886 -15.16180733 486.22748886 -16.47685242 486.22793579 C-19.29587163 486.22655086 -22.11462114 486.21102931 -24.93359375 486.1953125 C-26.89656937 486.19157939 -28.85954687 486.18873383 -30.82252502 486.18673706 C-35.97310589 486.17912407 -41.12357283 486.15949569 -46.27410889 486.1373291 C-51.53623921 486.11682031 -56.79838805 486.1077246 -62.06054688 486.09765625 C-72.3737478 486.07624754 -82.6868644 486.04213987 -93 486 C-84.65458715 477.64153932 -76.02790317 469.7375037 -66.8125 462.34375 C-63.60150066 459.66791722 -60.54972364 456.85640293 -57.5 454 C-52.73911006 449.54125556 -47.8353218 445.3620217 -42.74609375 441.27734375 C-39.20843606 438.34355366 -35.85476174 435.22762445 -32.4934082 432.09667969 C-29.13861375 428.991217 -25.68585972 426.05838283 -22.125 423.1875 C-12.77207391 415.87396219 -12.77207391 415.87396219 -8.71891785 405.01576042 C-8.49108201 402.68636888 -8.31825499 400.35848811 -8.16210938 398.02319336 C-8.09675491 397.13921371 -8.03140045 396.25523407 -7.96406555 395.34446716 C-7.75008676 392.42673256 -7.54698104 389.50834496 -7.34375 386.58984375 C-7.19520116 384.54117014 -7.04589644 382.49255121 -6.89587402 380.44398499 C-6.50201218 375.04220268 -6.11702476 369.63982609 -5.73431396 364.23724365 C-5.12421535 355.64548507 -4.50056047 347.05470067 -3.87715149 338.46389961 C-3.66294661 335.49515457 -3.45241304 332.52616863 -3.24255371 329.55711365 C-2.51673666 319.38950909 -1.69109846 309.2404032 -0.67939758 299.0968771 C0.11106148 291.13765995 0.61216472 283.17214025 1.0625 275.1875 C1.91544958 260.18374446 1.91544958 260.18374446 2.75219727 254.17260742 C3.39982881 248.49450585 3.60840588 242.76656993 3.9375 237.0625 C4.5395669 226.65983098 5.28017854 216.2765626 6.12495422 205.89070129 C7.31233757 191.2448794 8.414691 176.59257287 9.51095867 161.93969059 C9.85328269 157.36436016 10.19755485 152.78919474 10.54638672 148.21435547 C10.89015701 143.70544775 11.22912369 139.19620205 11.564785 134.68668365 C11.69150315 132.99473937 11.81984056 131.30291543 11.94995499 129.61122894 C14.65457173 109.05508144 14.65457173 109.05508144 8.5625 90.3125 C-0.22588153 81.22671131 -14.44105847 82.00209631 -26.1875 81.3125 C-28.88470455 81.13913419 -31.58157346 80.961221 -34.27839661 80.7820282 C-35.94436124 80.67294066 -37.61060546 80.56800835 -39.27714539 80.46809387 C-43.45530121 80.21088813 -47.5637193 79.79914011 -51.71601868 79.25233459 C-56.95803718 78.67319561 -62.23633378 78.46305993 -67.5 78.16015625 C-87.58522035 76.962754 -107.64554919 75.43276691 -127.70849609 73.91333008 C-133.01340799 73.51161032 -138.31859035 73.11358979 -143.62385559 72.71656704 C-147.76070959 72.40658687 -151.89741953 72.09471792 -156.03408813 71.78227425 C-157.99235702 71.63458727 -159.95066933 71.48747469 -161.9090271 71.34097099 C-164.62700057 71.13735595 -167.34476926 70.93119163 -170.0625 70.72436523 C-170.85308304 70.66564743 -171.64366608 70.60692963 -172.45820618 70.5464325 C-177.32999311 70.17232359 -182.15392841 69.62388958 -187 69 C-189.34607735 68.82274372 -191.6939506 68.66786822 -194.04296875 68.53515625 C-195.35265625 68.45845703 -196.66234375 68.38175781 -198.01171875 68.30273438 C-199.03338135 68.24412231 -199.03338135 68.24412231 -200.07568359 68.18432617 C-210.69938929 67.57146731 -221.29262093 66.85426836 -231.87841797 65.75244141 C-241.5602468 64.78101407 -251.27546048 64.25448328 -260.98828125 63.69726562 C-262.29796875 63.62056641 -263.60765625 63.54386719 -264.95703125 63.46484375 C-266.12210205 63.399021 -267.28717285 63.33319824 -268.48754883 63.26538086 C-270.84779928 63.08705374 -273.20375439 62.83981399 -275.55004883 62.52758789 C-281.08189187 61.80796457 -286.64503911 61.53892756 -292.21136856 61.21302795 C-295.76989066 61.00402201 -299.3277969 60.78497911 -302.88574219 60.56640625 C-304.00314506 60.49793362 -304.00314506 60.49793362 -305.14312172 60.4280777 C-317.95549868 59.63818101 -330.76028852 58.73485139 -343.56445312 57.82275391 C-346.65108397 57.60329448 -349.73799033 57.38847296 -352.82519531 57.17724609 C-356.64271077 56.91601045 -360.45961735 56.64715487 -364.27621078 56.37278748 C-365.70568203 56.27127442 -367.13534237 56.17238485 -368.56518936 56.0763092 C-370.54152686 55.94297564 -372.51712802 55.79886092 -374.49267578 55.65429688 C-375.60861115 55.57594604 -376.72454651 55.49759521 -377.8742981 55.41687012 C-381.11738211 54.98434493 -383.9373317 54.13270108 -387 53 C-387 52.67 -387 52.34 -387 52 C-386.17899434 51.87466804 -386.17899434 51.87466804 -385.34140271 51.74680412 C-352.4097831 46.71955996 -319.47825046 41.69174655 -286.54682065 36.66325926 C-282.53324887 36.05040463 -278.5196764 35.43755445 -274.50610352 34.82470703 C-273.7075547 34.70277356 -272.90900589 34.58084008 -272.08625863 34.45521165 C-259.39823806 32.51783992 -246.71016631 30.58080365 -234.02206551 28.64395747 C-225.51521574 27.34537911 -217.00838534 26.04667413 -208.50161934 24.74754715 C-207.7405542 24.63132079 -206.97948907 24.51509443 -206.19536135 24.39534606 C-203.1314433 23.92743733 -200.06752527 23.45952846 -197.00361027 22.99159971 C-187.89719193 21.60086625 -178.79064279 20.21099515 -169.68389506 18.82242019 C-161.5357259 17.57998734 -153.38767387 16.33678831 -145.23974609 15.09277344 C-144.52319763 14.98337761 -143.80664917 14.87398179 -143.06838712 14.76127094 C-124.2323992 11.88518317 -105.40088056 8.98211676 -86.57562721 6.03641963 C-83.26215539 5.51824948 -79.94849721 5.00129033 -76.63475895 4.48482704 C-75.58098259 4.32056925 -74.52720624 4.15631146 -73.44149727 3.98707616 C-71.37411329 3.66483921 -69.30672192 3.3426496 -67.23932272 3.02051032 C-61.46073932 2.11918012 -55.6836417 1.20902222 -49.90761995 0.29142666 C-46.44993823 -0.2559405 -42.99105102 -0.79536126 -39.53178763 -1.33263254 C-37.97766992 -1.57577687 -36.42407637 -1.82230401 -34.87112069 -2.07276297 C-8.20933516 -6.36900068 -8.20933516 -6.36900068 0 0 Z " fill="#FC7794" transform="translate(445,5)"/>
<path d="M0 0 C17.17731735 0.38906721 34.21891071 1.91490172 51.31518555 3.54003906 C61.39312965 4.48653424 71.44014872 5.22267597 81.55378723 5.65103149 C89.33458207 5.98804346 97.05874043 6.63573983 104.8125 7.375 C107.7457328 7.64596281 110.67941452 7.911777 113.61328125 8.17578125 C114.36791656 8.24375412 115.12255188 8.31172699 115.90005493 8.38175964 C128.22416034 9.47880741 140.56696678 10.34790679 152.90625 11.25390625 C170.85053429 12.57196252 188.78771051 13.98189819 206.7250061 15.39128113 C214.59431193 16.00951019 222.46377813 16.62568826 230.33327675 17.24145794 C236.16819573 17.69816628 242.00301663 18.15606663 247.83764648 18.61645508 C253.57329018 19.0689696 259.30917665 19.51828873 265.04523277 19.96554375 C267.1966394 20.13383929 269.34796098 20.30322637 271.49918556 20.47383308 C283.85762373 21.45322554 296.20300108 22.26525654 308.58944702 22.79147339 C314.01587564 23.02960026 319.411467 23.49330449 324.8125 24.0625 C325.71935547 24.15337891 326.62621094 24.24425781 327.56054688 24.33789062 C329.70752633 24.55372454 331.85385348 24.77603537 334 25 C334.09405851 30.96683641 333.81924192 36.65620859 333 42.5625 C332.90460938 43.28501953 332.80921875 44.00753906 332.7109375 44.75195312 C332.47914365 46.5019967 332.24033834 48.25110938 332 50 C329.83340626 50.02738672 327.66670825 50.04656832 325.5 50.0625 C323.69015625 50.07990234 323.69015625 50.07990234 321.84375 50.09765625 C318.63632229 50.01616672 315.5901242 49.70247794 312.41748047 49.26977539 C307.44437533 48.7148086 302.43663027 48.55555042 297.44091797 48.29858398 C281.00969738 47.4410243 264.64373524 46.0739114 248.2668457 44.49682617 C237.49149444 43.47638195 226.72098395 42.72609288 215.9140625 42.12890625 C193.04457868 40.85980607 170.21796943 39.00603593 147.38482666 37.21246338 C142.65142796 36.84164413 137.917734 36.47467276 133.18403435 36.10771847 C128.59252517 35.75144595 124.00116645 35.39326572 119.40985489 35.03445625 C117.23387492 34.86454184 115.05785772 34.69510345 112.88180161 34.52616692 C109.86229455 34.29136872 106.8429907 34.05411045 103.82373047 33.81616211 C102.94278214 33.74809357 102.0618338 33.68002502 101.15419006 33.6098938 C96.07911298 33.20685238 91.04878959 32.65378758 86 32 C83.86485974 31.83490101 81.72793566 31.69132729 79.58984375 31.5703125 C78.37167969 31.49876953 77.15351563 31.42722656 75.8984375 31.35351562 C74.59132813 31.27810547 73.28421875 31.20269531 71.9375 31.125 C59.9607981 30.40855432 47.99265712 29.59821361 36.02883911 28.69134521 C34.36933908 28.56577875 32.70973433 28.44158722 31.05001831 28.31890869 C20.31813116 27.52318518 9.66499569 26.44003026 -1 25 C-1.02083333 22.52083333 -1.04166667 20.04166667 -1.0625 17.5625 C-1.071604 16.80912354 -1.08070801 16.05574707 -1.09008789 15.27954102 C-1.11064605 10.11678942 -0.64099825 5.1229388 0 0 Z " fill="#FEF1E8" transform="translate(76,189)"/>
<path d="M0 0 C13.78923371 0.66435342 27.54985148 1.57407188 41.31640625 2.6015625 C43.4620616 2.76029944 45.60772738 2.9188954 47.75340271 3.07736206 C53.4950221 3.50205528 59.23642871 3.92956079 64.9777832 4.3578186 C68.59736591 4.62759868 72.21700854 4.89656085 75.83666992 5.1652832 C109.67662589 7.67815617 143.51054891 10.26106721 177.33935547 12.91955566 C200.31753108 14.72486339 223.29888039 16.48036591 246.28515625 18.1796875 C247.52664806 18.27148033 248.76813988 18.36327316 250.04725266 18.4578476 C262.32569082 19.36518058 274.60439538 20.26883189 286.88349247 21.1672039 C291.40913546 21.49853919 295.93469026 21.83106913 300.46023369 22.16376114 C303.57724255 22.39235676 306.69438563 22.61905338 309.8115387 22.84567261 C311.70517687 22.98474507 313.59880825 23.12390999 315.49243164 23.26318359 C316.32878647 23.32341454 317.1651413 23.38364548 318.02684021 23.4457016 C319.21305466 23.53353283 319.21305466 23.53353283 320.42323303 23.62313843 C321.09447236 23.67211966 321.76571169 23.72110088 322.4572916 23.77156639 C326.31106843 24.11778468 330.15436818 24.57270758 334 25 C333.67 33.25 333.34 41.5 333 50 C320.75672779 50.26087446 308.67687118 49.25605162 296.48046875 48.28515625 C294.20895851 48.10780418 291.93741759 47.93084459 289.66584778 47.7542572 C284.92778234 47.38489958 280.18999138 47.01225761 275.45239258 46.63696289 C269.39265814 46.15699504 263.33246997 45.68308203 257.27208996 45.21134281 C252.59045309 44.84663524 247.90898075 44.47985295 243.22756386 44.1123333 C240.99296328 43.93693864 238.75833299 43.76192204 236.5236721 43.58729744 C233.40128609 43.34276441 230.2791097 43.09571234 227.15698242 42.84790039 C226.24304214 42.77668976 225.32910187 42.70547913 224.38746643 42.6321106 C219.2346497 42.22001456 214.12656133 41.66146856 209 41 C206.6370068 40.83257217 204.27215981 40.68964283 201.90625 40.5703125 C200.54946184 40.49837298 199.19269173 40.42609239 197.8359375 40.35351562 C197.13049805 40.31653564 196.42505859 40.27955566 195.69824219 40.24145508 C183.43277593 39.59167416 171.2223587 38.72009803 159 37.5 C148.00653574 36.40472523 137.03200414 35.59001388 126 35 C114.2979191 34.37414906 102.67039532 33.46511316 91.00842285 32.30123901 C80.92928891 31.30143257 70.864076 30.59378473 60.75 30.0625 C40.11678695 28.97841426 19.56418031 26.97120021 -1 25 C-1.01362775 22.79949671 -1.02325534 20.59896847 -1.03125 18.3984375 C-1.03705078 17.17302246 -1.04285156 15.94760742 -1.04882812 14.68505859 C-0.98345935 9.75167727 -0.53646197 4.90017885 0 0 Z " fill="#FEF1E9" transform="translate(71,253)"/>
<path d="M0 0 C0.33 0 0.66 0 1 0 C1.19623541 44.54504468 1.37650513 89.09012913 1.53537826 133.63532358 C1.55415055 138.89490363 1.57305495 144.15448321 1.59204102 149.4140625 C1.59770733 150.98468652 1.59770733 150.98468652 1.60348812 152.58704032 C1.66495975 169.53879091 1.73713256 186.49047988 1.8132638 203.44217025 C1.89114954 220.83759549 1.95752682 238.23303723 2.01323253 255.62854779 C2.04796522 266.36154316 2.0916621 277.09442504 2.14684484 287.82733507 C2.18383127 295.1883979 2.20963371 302.54944714 2.22667392 309.91058294 C2.23683286 314.15686278 2.25189143 318.40297499 2.28024101 322.64917564 C2.30611265 326.5405657 2.31786456 330.43173961 2.31862888 334.32321323 C2.32135379 335.72717064 2.32915518 337.13112987 2.34269472 338.53502463 C2.42654706 347.6037681 2.13791244 356.02262164 -2.8125 363.875 C-9.9250523 370.78433652 -17.32129467 372.31314929 -26.87280273 372.22705078 C-28.16180733 372.22748886 -28.16180733 372.22748886 -29.47685242 372.22793579 C-32.29587163 372.22655086 -35.11462114 372.21102931 -37.93359375 372.1953125 C-39.89656937 372.19157939 -41.85954687 372.18873383 -43.82252502 372.18673706 C-48.97310589 372.17912407 -54.12357283 372.15949569 -59.27410889 372.1373291 C-64.53623921 372.11682031 -69.79838805 372.1077246 -75.06054688 372.09765625 C-85.3737478 372.07624754 -95.6868644 372.04213987 -106 372 C-97.65458715 363.64153932 -89.02790317 355.7375037 -79.8125 348.34375 C-76.60150066 345.66791722 -73.54972364 342.85640293 -70.5 340 C-65.73911006 335.54125556 -60.8353218 331.3620217 -55.74609375 327.27734375 C-52.20843606 324.34355366 -48.85476174 321.22762445 -45.4934082 318.09667969 C-42.13861375 314.991217 -38.68585972 312.05838283 -35.125 309.1875 C-25.77207391 301.87396219 -25.77207391 301.87396219 -21.71891785 291.01576042 C-21.49108201 288.68636888 -21.31825499 286.35848811 -21.16210938 284.02319336 C-21.09675491 283.13921371 -21.03140045 282.25523407 -20.96406555 281.34446716 C-20.75008676 278.42673256 -20.54698104 275.50834496 -20.34375 272.58984375 C-20.19520116 270.54117014 -20.04589644 268.49255121 -19.89587402 266.44398499 C-19.50201218 261.04220268 -19.11702476 255.63982609 -18.73431396 250.23724365 C-18.12421535 241.64548507 -17.50056047 233.05470067 -16.87715149 224.46389961 C-16.66294661 221.49515457 -16.45241304 218.52616863 -16.24255371 215.55711365 C-15.51673666 205.38950909 -14.69109846 195.2404032 -13.67939758 185.0968771 C-12.88893852 177.13765995 -12.38783528 169.17214025 -11.9375 161.1875 C-11.08455042 146.18374446 -11.08455042 146.18374446 -10.24780273 140.17260742 C-9.60017119 134.49450585 -9.39159412 128.76656993 -9.0625 123.0625 C-8.4615555 112.67922408 -7.72043441 102.31592872 -6.87504578 91.94961548 C-6.03504269 81.58302975 -5.2596695 71.21201634 -4.4921875 60.83984375 C-4.42656301 59.9532715 -4.36093853 59.06669926 -4.29332542 58.15326118 C-3.88845149 52.68052558 -3.48471317 47.20770664 -3.08129883 41.73486328 C-2.73314326 37.01395612 -2.38410752 32.29311403 -2.03515625 27.57226562 C-1.35593232 18.38157221 -0.67764871 9.19080968 0 0 Z " fill="#46C3C2" transform="translate(458,119)"/>
<path d="M0 0 C11.05302823 9.48997373 11.49228605 25.33891049 13 39 C13.0440652 40.66608404 13.07194932 42.33488707 13 44 C11 41 11 41 9.9921875 38.9140625 C7.11255001 33.01382625 4.03513056 29.68761281 -2 27 C-10.52725062 24.37053852 -20.64084933 26.06603229 -29.40966797 26.7434082 C-30.49336701 26.82351261 -31.57706606 26.90361702 -32.69360447 26.98614883 C-36.29346795 27.25338829 -39.89281357 27.52703309 -43.4921875 27.80078125 C-46.08966018 27.99513299 -48.68715952 28.18912871 -51.28468323 28.38279724 C-57.60533578 28.85487056 -63.92560033 29.33195978 -70.24574178 29.81082195 C-75.42517615 30.20314081 -80.60476439 30.5933705 -85.78445435 30.9822998 C-132.67403943 34.50358987 -179.55687863 38.11152419 -226.4375 41.75 C-227.95025378 41.86739375 -229.46300759 41.98478724 -230.97576141 42.10218048 C-256.53900403 44.08606207 -282.10213839 46.0713654 -307.66455078 48.06591797 C-316.41273815 48.74845881 -325.16117934 49.42760625 -333.91004467 50.10140419 C-338.82165318 50.47980326 -343.73289895 50.86245922 -348.64386654 51.24908352 C-351.54684221 51.47650171 -354.45014741 51.69945235 -357.35357475 51.92102242 C-359.23372218 52.06574921 -361.11346625 52.21568861 -362.99317932 52.36595154 C-371.00781852 52.97035012 -378.9640078 53.10128085 -387 53 C-387 52.67 -387 52.34 -387 52 C-386.17899434 51.87466804 -386.17899434 51.87466804 -385.34140271 51.74680412 C-352.4097831 46.71955996 -319.47825046 41.69174655 -286.54682065 36.66325926 C-282.53324887 36.05040463 -278.5196764 35.43755445 -274.50610352 34.82470703 C-273.7075547 34.70277356 -272.90900589 34.58084008 -272.08625863 34.45521165 C-259.39823806 32.51783992 -246.71016631 30.58080365 -234.02206551 28.64395747 C-225.51521574 27.34537911 -217.00838534 26.04667413 -208.50161934 24.74754715 C-207.7405542 24.63132079 -206.97948907 24.51509443 -206.19536135 24.39534606 C-203.1314433 23.92743733 -200.06752527 23.45952846 -197.00361027 22.99159971 C-187.89719193 21.60086625 -178.79064279 20.21099515 -169.68389506 18.82242019 C-161.5357259 17.57998734 -153.38767387 16.33678831 -145.23974609 15.09277344 C-144.52319763 14.98337761 -143.80664917 14.87398179 -143.06838712 14.76127094 C-124.2323992 11.88518317 -105.40088056 8.98211676 -86.57562721 6.03641963 C-83.26215539 5.51824948 -79.94849721 5.00129033 -76.63475895 4.48482704 C-75.58098259 4.32056925 -74.52720624 4.15631146 -73.44149727 3.98707616 C-71.37411329 3.66483921 -69.30672192 3.3426496 -67.23932272 3.02051032 C-61.46073932 2.11918012 -55.6836417 1.20902222 -49.90761995 0.29142666 C-46.44993823 -0.2559405 -42.99105102 -0.79536126 -39.53178763 -1.33263254 C-37.97766992 -1.57577687 -36.42407637 -1.82230401 -34.87112069 -2.07276297 C-8.20933516 -6.36900068 -8.20933516 -6.36900068 0 0 Z " fill="#B8DD6F" transform="translate(445,5)"/>
<path d="M0 0 C17.77264155 0.54134827 35.45417915 1.60143161 53.17578125 3.03125 C55.68901833 3.22975441 58.20229966 3.42769932 60.71562195 3.62512207 C67.25556809 4.13988643 73.79505627 4.6602236 80.33441162 5.18243408 C90.81144653 6.01880293 101.28893804 6.84932551 111.76686668 7.67442322 C115.37869707 7.96008298 118.99017432 8.24991749 122.60163879 8.54016113 C134.59734375 9.49405223 146.57779906 10.27105889 158.59983826 10.79510498 C163.58832628 11.01664736 168.55344945 11.38606101 173.5234375 11.8671875 C174.38795029 11.94653534 175.25246307 12.02588318 176.14317322 12.1076355 C177.9604982 12.27461761 179.77765442 12.44344691 181.59463501 12.61413574 C186.43841442 13.06859727 191.28361859 13.50726655 196.12890625 13.9453125 C197.11028061 14.03417725 198.09165497 14.12304199 199.10276794 14.21459961 C209.49919513 15.14807834 219.90413746 15.96236523 230.3125 16.75 C231.16745056 16.81475525 232.02240112 16.8795105 232.90325928 16.94622803 C237.60189252 17.30130887 242.30079776 17.65253364 247 18 C247.02718316 20.85423192 247.04692705 23.70820015 247.0625 26.5625 C247.07087891 27.36236328 247.07925781 28.16222656 247.08789062 28.98632812 C247.10742247 33.77163104 246.80437018 38.28145051 246 43 C234.55269318 43.250908 223.29791188 42.4593293 211.8984375 41.53125 C209.90377526 41.37316515 207.90906864 41.21563937 205.9143219 41.05862427 C201.63770234 40.72113059 197.36134653 40.38053244 193.08517456 40.03741455 C182.76285023 39.20951399 172.43922895 38.39805005 162.11559105 37.58671951 C159.71269496 37.39785471 157.30981345 37.20880431 154.90694618 37.01957321 C136.25522064 35.55141701 117.60006767 34.1349449 98.94140625 32.7578125 C97.71747162 32.66745979 96.49353699 32.57710709 95.23251343 32.48401642 C83.32462882 31.60566324 71.41635342 30.73269144 59.5078249 29.86311531 C55.09392291 29.54047255 50.68012427 29.21642986 46.26634026 28.89217758 C43.28700766 28.67392727 40.30752202 28.45787158 37.32801819 28.24197388 C24.53775593 27.30718531 11.76776025 26.20319458 -1 25 C-1.10893271 16.60703496 -0.73336911 8.36102353 0 0 Z " fill="#FEF1E8" transform="translate(66,317)"/>
<path d="M0 0 C46.99961842 -0.09153673 93.9992274 -0.16202918 140.99891737 -0.20426132 C146.54647891 -0.2092642 152.09404028 -0.21444148 157.64160156 -0.21972656 C158.74603054 -0.2207758 159.85045953 -0.22182505 160.98835605 -0.22290608 C178.87585752 -0.24031576 196.76330761 -0.27185656 214.65077859 -0.30861118 C233.0022154 -0.34600492 251.35362529 -0.36823254 269.70509863 -0.37635398 C281.03078951 -0.38184499 292.35633519 -0.39919378 303.68198138 -0.43166587 C311.44627433 -0.45279439 319.21049211 -0.4592038 326.97481173 -0.45400551 C331.45579206 -0.45144115 335.93651848 -0.45539808 340.41745377 -0.4768219 C344.52101174 -0.4962982 348.62414524 -0.49726313 352.72772282 -0.48359558 C354.21104021 -0.48190657 355.69438416 -0.4869718 357.17764932 -0.49953273 C366.40004275 -0.57308116 373.07122256 -0.3191203 380.2421875 5.96484375 C380.78101563 6.61582031 381.31984375 7.26679687 381.875 7.9375 C382.42929687 8.58589844 382.98359375 9.23429687 383.5546875 9.90234375 C386.65139306 14.39675155 387.24471944 18.2032208 387.1953125 23.61328125 C387.18886719 24.86044922 387.18242187 26.10761719 387.17578125 27.39257812 C387.15902344 28.68615234 387.14226562 29.97972656 387.125 31.3125 C387.11597656 32.62541016 387.10695313 33.93832031 387.09765625 35.29101562 C387.07411797 38.52752913 387.0412352 41.76367149 387 45 C385.91484485 43.37226727 384.83353413 41.74181886 383.7734375 40.09765625 C379.35293117 33.66446129 374.56570148 30.70584481 367 29 C365.67025671 28.84458033 364.33641704 28.72166972 363.00097656 28.62695312 C362.22627014 28.57019409 361.45156372 28.51343506 360.65338135 28.45495605 C359.82417175 28.39763306 358.99496216 28.34031006 358.140625 28.28125 C357.27741638 28.21844849 356.41420776 28.15564697 355.52484131 28.09094238 C352.76678814 27.89064415 350.00843471 27.6949679 347.25 27.5 C344.50588798 27.30454355 341.76186488 27.1080287 339.01800537 26.90905762 C337.31296045 26.78555702 335.60776599 26.66409754 333.90240479 26.54504395 C330.33182923 26.28763439 326.80796488 25.97473683 323.25683594 25.50756836 C317.36484598 24.73760787 311.42892163 24.50134281 305.5 24.16015625 C285.41477965 22.962754 265.35445081 21.43276691 245.29150391 19.91333008 C239.98659201 19.51161032 234.68140965 19.11358979 229.37614441 18.71656704 C225.23929041 18.40658687 221.10258047 18.09471792 216.96591187 17.78227425 C215.00764298 17.63458727 213.04933067 17.48747469 211.0909729 17.34097099 C208.37299943 17.13735595 205.65523074 16.93119163 202.9375 16.72436523 C202.14691696 16.66564743 201.35633392 16.60692963 200.54179382 16.5464325 C195.67000689 16.17232359 190.84607159 15.62388958 186 15 C183.65392265 14.82274372 181.3060494 14.66786822 178.95703125 14.53515625 C177.64734375 14.45845703 176.33765625 14.38175781 174.98828125 14.30273438 C173.96661865 14.24412231 173.96661865 14.24412231 172.92431641 14.18432617 C162.30061071 13.57146731 151.70737907 12.85426836 141.12158203 11.75244141 C131.4397532 10.78101407 121.72453952 10.25448328 112.01171875 9.69726562 C100.93224594 9.04841855 100.93224594 9.04841855 96.875 8.4921875 C91.20424159 7.77190972 85.51780113 7.51306627 79.8125 7.1875 C64.19665126 6.26373677 48.5987065 5.11227415 33 3.9375 C31.82249176 3.8495517 30.64498352 3.76160339 29.43179321 3.67098999 C26.03768423 3.4170698 22.64380976 3.16022929 19.25 2.90234375 C18.23342819 2.82634949 17.21685638 2.75035522 16.16947937 2.67205811 C10.75407367 2.2560291 5.38307673 1.72430764 0 1 C0 0.67 0 0.34 0 0 Z " fill="#69DBD9" transform="translate(72,59)"/>
<path d="M0 0 C0.33 0 0.66 0 1 0 C2.02959993 13.06655047 3.05566219 26.1333737 4.07739925 39.2005415 C4.55210871 45.27030305 5.02796622 51.33996972 5.5065918 57.40942383 C5.96977903 63.28367378 6.42976214 69.15816717 6.8876667 75.03283119 C7.06155473 77.25680521 7.23653309 79.4806943 7.41270256 81.70448875 C8.34394391 93.46906935 9.15695293 105.2204862 9.67528534 117.01094055 C9.93712606 122.92433102 10.31943688 128.80791516 10.90234375 134.69921875 C11.07110309 136.50454425 11.23971753 138.3098833 11.40820312 140.11523438 C11.49465088 141.02362061 11.58109863 141.93200684 11.67016602 142.86791992 C13.15227145 158.49973332 14.38238215 174.10709509 15.19668579 189.78739929 C15.76475095 200.13786761 16.61824763 210.44537635 17.57394981 220.76663208 C19.79414508 244.81862444 21.66035036 268.89345824 23.46130371 292.9798584 C23.84507531 298.10392371 24.232254 303.22773161 24.61914062 308.3515625 C25.24521 316.64685082 25.86906836 324.94230187 26.4905386 333.23793602 C26.92118628 338.97736718 27.36292265 344.71587932 27.81373596 350.45376587 C28.5859304 361.00968341 28.96910537 369.15284674 22.1875 377.75 C18.25789242 382.08813114 13.81473028 384.30777021 8 385 C5.3326692 385.04057147 2.66783327 385.01358367 0 385 C-0.15080339 339.99693905 -0.29583545 294.99386267 -0.4332476 249.99075873 C-0.44951642 244.66424918 -0.46583247 239.33773978 -0.48217773 234.01123047 C-0.48543066 232.95092569 -0.48868358 231.89062091 -0.49203508 230.79818568 C-0.54465221 213.6840291 -0.60108601 196.56988716 -0.6589582 179.45574763 C-0.71836082 161.86359093 -0.77359721 144.2714246 -0.82505554 126.67924285 C-0.85687503 115.84501012 -0.8918514 105.01079741 -0.93101191 94.17658868 C-0.95764056 86.7228761 -0.9801819 79.26915774 -0.99967117 71.8154231 C-1.01099055 67.53052523 -1.02395565 63.24565134 -1.04183006 58.96077538 C-1.12265308 39.27777921 -0.89939784 19.66744277 0 0 Z " fill="#FA6E8D" transform="translate(459,76)"/>
<path d="M0 0 C0.33 0 0.66 0 1 0 C1.14556178 0.95599814 1.29112356 1.91199629 1.44109631 2.89696407 C2.16212798 7.63240276 2.88318425 12.36783769 3.60424805 17.10327148 C3.74184886 18.00693785 3.87944967 18.91060422 4.02122021 19.84165442 C5.76198388 31.27365525 7.50300878 42.70561625 9.24446106 54.13751221 C9.41256403 55.24104644 9.58066699 56.34458068 9.75386399 57.48155534 C10.45277788 62.06965974 11.1516923 66.65776407 11.85062826 71.24586511 C13.86166069 84.44726289 15.87208985 97.64875206 17.88085938 110.85049438 C20.07972265 125.30152457 22.27945784 139.75242175 24.48046875 154.203125 C24.66291751 155.40103031 24.84536628 156.59893562 25.03334379 157.83314109 C29.6585969 188.19824264 34.30869345 218.5592451 39.02277565 248.9106884 C39.78690091 253.83108886 40.54926904 258.75176041 41.311203 263.67250061 C41.67557459 266.02522655 42.03996022 268.37795031 42.40434849 270.73067367 C42.64061215 272.25620368 42.87684993 273.78173771 43.11306083 275.30727589 C44.46055405 284.00853059 45.81523886 292.70859553 47.18200439 301.4068445 C48.11852174 307.37057714 49.0438175 313.33599385 49.96500206 319.30211639 C50.33422129 321.68019186 50.70734733 324.05766504 51.08493996 326.43442535 C56.43234633 360.11467786 56.43234633 360.11467786 51.32421875 368.359375 C47.00097709 373.7156036 41.8417352 377.60721819 35 379 C32.66673499 379.01785662 30.33325344 379.01930828 28 379 C27.17052022 368.56992582 26.34307568 358.13969127 25.51714706 347.70933533 C25.38115371 345.9919765 25.24512943 344.27462012 25.10907364 342.55726624 C23.55087151 322.88676311 22.00491244 303.21551087 20.5234375 283.5390625 C20.46592253 282.77575245 20.40840755 282.0124424 20.3491497 281.22600174 C19.80073445 273.94487202 19.25475859 266.66356818 18.71483612 259.38180351 C18.56504038 257.3648676 18.41441158 255.34799582 18.26345825 253.33114624 C18.08142301 250.89688381 17.90093742 248.46250474 17.72238159 246.02798462 C17.38637963 241.54875336 17.04411567 237.08549279 16.46337891 232.63061523 C16.02519474 229.19740305 15.77286421 225.81914664 15.60546875 222.36328125 C15.53908203 221.08710938 15.47269531 219.8109375 15.40429688 218.49609375 C15.36941162 217.81788574 15.33452637 217.13967773 15.29858398 216.44091797 C14.4410243 200.00969738 13.0739114 183.64373524 11.49682617 167.2668457 C10.53920888 157.15293704 9.80324707 147.04722484 9.24691391 136.90299416 C8.40805212 121.62005199 7.28930342 106.36927298 6.0546875 91.11328125 C5.96700356 90.02688732 5.87931961 88.94049339 5.78897858 87.82117844 C4.97003919 77.68538583 4.14130959 67.55040058 3.30810547 57.41577148 C2.84684401 51.80079659 2.39150224 46.18536536 1.93957901 40.56963158 C1.76885826 38.46340456 1.59588094 36.35735899 1.42043686 34.25152016 C0.46680997 22.80420829 -0.27198084 11.49171752 0 0 Z " fill="#AACD67" transform="translate(458,50)"/>
<path d="M0 0 C0.66 0.33 1.32 0.66 2 1 C1.27683594 1.74443359 1.27683594 1.74443359 0.5390625 2.50390625 C-0.09257813 3.18324219 -0.72421875 3.86257812 -1.375 4.5625 C-2.31472656 5.55443359 -2.31472656 5.55443359 -3.2734375 6.56640625 C-6.98962637 11.80438287 -7.43010034 18.21188256 -8.125 24.4375 C-8.21136719 25.16904297 -8.29773438 25.90058594 -8.38671875 26.65429688 C-8.59628393 28.43560094 -8.79887868 30.21772281 -9 32 C-9.33 32 -9.66 32 -10 32 C-12.08788671 12.9071565 -12.08788671 12.9071565 -5.5 4.5625 C-3 2 -3 2 0 0 Z " fill="#B6C691" transform="translate(37,62)"/>
<path d="M0 0 C-8.59509285 3.75058597 -16.80621145 3.28499689 -26 3 C-26 2.67 -26 2.34 -26 2 C-24.64068359 1.92652344 -24.64068359 1.92652344 -23.25390625 1.8515625 C-14.96462572 1.35835079 -14.96462572 1.35835079 -6.8125 -0.125 C-3 -1 -3 -1 0 0 Z " fill="#E69C1F" transform="translate(332,508)"/>
</svg>
